<?xml version="1.0" encoding="UTF-8"?>
<!-- Generated by Pixelmator Pro 3.2.3 -->
<svg width="800" height="238" viewBox="0 0 800 238" xmlns="http://www.w3.org/2000/svg" xmlns:xlink="http://www.w3.org/1999/xlink">
    <g id="g1">
        <path id="path1" fill="#ffffff" stroke="none" d="M 794.904541 209.561646 C 794.904541 215.58844 792.508179 221.368042 788.243225 225.627411 C 783.978333 229.88678 778.194702 232.276489 772.16626 232.270203 L 28.046316 232.270203 C 15.487316 232.283325 5.294697 222.117279 5.278329 209.561646 L 5.278329 28.467987 C 5.294688 15.907532 15.482515 5.733032 28.046316 5.729736 L 772.160339 5.729736 C 778.191956 5.729736 783.97644 8.12558 788.240845 12.389984 C 792.505249 16.654419 794.900208 22.437988 794.898682 28.467987 L 794.904541 209.561646 Z"/>
        <path id="path2" fill="#a6a6a6" stroke="none" d="M 772.16626 237.55307 L 28.046316 237.55307 C 12.576624 237.549835 0.029435 225.027191 0 209.561646 L 0 28.473938 C 0.022885 13.000854 12.569121 0.465881 28.046316 0.45282 L 772.160339 0.45282 C 787.634827 0.472412 800.177185 13.00354 800.206604 28.473938 L 800.206604 209.561646 C 800.218445 225.001099 787.615723 237.55307 772.16626 237.55307 Z"/>
        <path id="path3" fill="#000000" stroke="none" d="M 794.904541 209.561646 C 794.904541 215.58844 792.508179 221.368042 788.243225 225.627411 C 783.978333 229.88678 778.194702 232.276489 772.16626 232.270203 L 28.046316 232.270203 C 15.487316 232.283325 5.294697 222.117279 5.278329 209.561646 L 5.278329 28.467987 C 5.294688 15.907532 15.482515 5.733032 28.046316 5.729736 L 772.160339 5.729736 C 778.191956 5.729736 783.97644 8.12558 788.240845 12.389984 C 792.505249 16.654419 794.900208 22.437988 794.898682 28.467987 L 794.904541 209.561646 Z"/>
        <path id="path4" fill="#ffffff" stroke="none" d="M 178.680359 117.754883 C 178.508362 98.645264 194.331482 89.348389 195.055038 88.915558 C 186.093735 75.853668 172.20401 74.069 167.323044 73.926697 C 155.657349 72.699371 144.341553 80.905273 138.398987 80.905273 C 132.337799 80.905273 123.186722 74.045288 113.323959 74.246857 C 100.632248 74.442535 88.758965 81.788727 82.247047 93.196381 C 68.808067 116.45639 78.830963 150.637848 91.706528 169.439148 C 98.147278 178.653046 105.673347 188.928223 115.524254 188.566559 C 125.161652 188.175232 128.761597 182.429901 140.391708 182.429901 C 151.91507 182.429901 155.295578 188.566559 165.342194 188.335327 C 175.685349 188.175232 182.197266 179.085876 188.412643 169.794922 C 195.855667 159.246979 198.844757 148.84726 198.963379 148.313629 C 198.726135 148.230621 178.882004 140.653198 178.680359 117.754883 Z M 159.702087 61.558502 C 164.885529 55.077972 168.432083 46.261353 167.447586 37.31427 C 159.945251 37.646301 150.562866 42.502258 145.159988 48.840515 C 140.379852 54.425751 136.109741 63.580353 137.212845 72.189453 C 145.640381 72.817932 154.293289 67.938263 159.702087 61.558502 Z"/>
        <linearGradient id="linearGradient1" x1="586.896184" y1="238.182598" x2="586.896184" y2="-616.915412" gradientUnits="userSpaceOnUse">
            <stop offset="1e-05" stop-color="#1a1a1a" stop-opacity="0.1"/>
            <stop offset="0.123" stop-color="#212121" stop-opacity="0.151"/>
            <stop offset="0.308" stop-color="#353535" stop-opacity="0.227"/>
            <stop offset="0.532" stop-color="#575757" stop-opacity="0.318"/>
            <stop offset="0.783" stop-color="#858585" stop-opacity="0.421"/>
            <stop offset="1" stop-color="#b3b3b3" stop-opacity="0.51"/>
        </linearGradient>
        <path id="path5" fill="url(#linearGradient1)" stroke="none" d="M 772.16626 0.45282 L 373.593048 0.45282 L 529.707092 237.55307 L 772.16626 237.55307 C 787.638794 237.540039 800.183167 225.012268 800.212585 209.543823 L 800.212585 28.473938 C 800.186401 13.002197 787.642151 0.469177 772.16626 0.45282 Z"/>
        <g id="g2">
            <path id="path6" fill="#ffffff" stroke="none" d="M 318.271423 187.244354 L 304.802795 187.244354 L 297.424988 164.067352 L 271.780609 164.067352 L 264.752716 187.244354 L 251.639923 187.244354 L 277.053009 108.339386 L 292.745636 108.339386 L 318.271423 187.244354 Z M 295.200958 154.343567 L 288.528931 133.739807 C 287.823151 131.634979 286.49469 126.678223 284.549408 118.875488 L 284.312164 118.875488 C 283.529327 122.231354 282.277954 127.188141 280.563965 133.739807 L 274.004608 154.343567 L 295.200958 154.343567 Z M 383.497345 158.09671 C 383.497345 167.773071 380.870026 175.421661 375.609497 181.03656 C 370.900513 186.03479 365.046906 188.530975 358.066467 188.530975 C 350.528534 188.530975 345.107849 185.845062 341.816315 180.461426 L 341.816315 210.314636 L 329.172058 210.314636 L 329.172058 149.048859 C 329.172058 142.971497 329.011932 136.73996 328.703522 130.348358 L 339.823608 130.348358 L 340.529358 139.366577 L 340.766602 139.366577 C 344.983307 132.571777 351.382568 129.174377 359.970215 129.174377 C 366.683777 129.174377 372.2883 131.824707 376.771912 137.131287 C 381.249573 142.449707 383.497345 149.434265 383.497345 158.09671 Z M 370.615845 158.559204 C 370.615845 153.021393 369.370392 148.455933 366.867645 144.856964 C 364.133575 141.115662 360.462463 139.242065 355.860229 139.242065 C 352.740692 139.242065 349.905823 140.285583 347.373383 142.342987 C 344.835052 144.418213 343.174438 147.127808 342.397552 150.483704 C 342.05069 151.738739 341.853607 153.030396 341.810394 154.331696 L 341.810394 163.82428 C 341.810394 167.956879 343.079559 171.449127 345.61792 174.306976 C 348.15625 177.152954 351.453705 178.581879 355.510315 178.581879 C 360.272705 178.581879 363.979401 176.737915 366.630402 173.079651 C 369.287354 169.409515 370.615845 164.57135 370.615845 158.559204 Z M 448.954529 158.09671 C 448.954529 167.773071 446.327271 175.421661 441.066742 181.03656 C 436.351776 186.03479 430.504089 188.530975 423.517761 188.530975 C 415.979828 188.530975 410.559143 185.845062 407.267609 180.461426 L 407.267609 210.314636 L 394.623352 210.314636 L 394.623352 149.048859 C 394.623352 142.971497 394.463226 136.73996 394.154816 130.348358 L 405.274902 130.348358 L 405.980652 139.366577 L 406.217896 139.366577 C 410.42868 132.571777 416.827881 129.174377 425.421509 129.174377 C 432.12912 129.174377 437.733643 131.824707 442.229156 137.131287 C 446.700897 142.449707 448.954529 149.434265 448.954529 158.09671 Z M 436.067139 158.559204 C 436.067139 153.021393 434.815765 148.455933 432.312958 144.856964 C 429.578918 141.115662 425.919708 139.242065 421.317474 139.242065 C 418.197906 139.242065 415.363037 140.285583 412.818756 142.342987 C 410.280426 144.418213 408.625763 147.127808 407.848816 150.483704 C 407.463348 152.049011 407.255737 153.323761 407.255737 154.331696 L 407.255737 163.82428 C 407.255737 167.956879 408.530853 171.449127 411.057312 174.306976 C 413.595673 177.147034 416.893127 178.581879 420.961639 178.581879 C 425.729889 178.581879 429.436584 176.737915 432.081726 173.079651 C 434.738647 169.409515 436.067139 164.57135 436.067139 158.559204 Z M 522.139465 165.11087 C 522.139465 171.828583 519.790894 177.289337 515.123474 181.504944 C 509.987457 186.105957 502.81723 188.412384 493.624664 188.412384 C 485.131897 188.412384 478.323425 186.77594 473.187439 183.497131 L 476.111267 172.96106 C 481.656464 176.245819 487.747284 177.882233 494.377838 177.882233 C 499.146149 177.882233 502.852844 176.803131 505.497925 174.66272 C 508.148956 172.516388 509.489258 169.646667 509.489258 166.06546 C 509.489258 162.857819 508.380249 160.171906 506.203644 157.98407 C 504.015259 155.802155 500.397522 153.768433 495.31488 151.900757 C 481.496338 146.748352 474.581177 139.212402 474.581177 129.29892 C 474.581177 122.82428 477.024597 117.523651 481.899628 113.379181 C 486.774689 109.240631 493.239136 107.171356 501.281189 107.171356 C 508.463287 107.171356 514.447327 108.422394 519.197815 110.918579 L 516.024963 121.223419 C 511.553162 118.804321 506.506134 117.594788 500.860138 117.594788 C 496.400208 117.594788 492.901093 118.691681 490.398346 120.873596 C 488.292938 122.82428 487.225403 125.201874 487.225403 128.024139 C 487.225403 131.136932 488.441223 133.722046 490.860931 135.749817 C 492.960419 137.617493 496.791626 139.651184 502.330902 141.833099 C 509.127502 144.572357 514.121216 147.762238 517.31781 151.426422 C 520.538147 155.090637 522.139465 159.662018 522.139465 165.11087 Z M 564.051819 139.834961 L 550.114624 139.834961 L 550.114624 167.458832 C 550.114624 174.484833 552.569946 177.988983 557.492432 177.988983 C 559.752075 177.988983 561.626099 177.799225 563.108826 177.401978 L 563.45874 187.001251 C 560.967834 187.932129 557.68811 188.400543 553.62561 188.400543 C 548.631958 188.400543 544.729553 186.87674 541.912476 183.829163 C 539.107239 180.781586 537.69574 175.676605 537.69574 168.490479 L 537.69574 139.811249 L 529.392761 139.811249 L 529.392761 130.324646 L 537.69574 130.324646 L 537.69574 119.907135 L 550.114624 116.159943 L 550.114624 130.324646 L 564.051819 130.324646 L 564.051819 139.834961 Z M 626.810547 158.327972 C 626.810547 167.073425 624.3078 174.253601 619.314148 179.8685 C 614.089172 185.649414 607.138367 188.530975 598.473633 188.530975 C 590.111328 188.530975 583.463013 185.762054 578.504944 180.230194 C 573.546875 174.686432 571.06781 167.701935 571.06781 159.276611 C 571.06781 150.459991 573.629883 143.238312 578.736206 137.623413 C 583.854431 132.002594 590.745911 129.192169 599.410645 129.192169 C 607.761108 129.192169 614.46875 131.96701 619.54541 137.504822 C 624.396729 142.876617 626.810547 149.813721 626.810547 158.327972 Z M 613.703674 158.6185 C 613.703674 153.406769 612.576843 148.936188 610.3172 145.194916 C 607.666199 140.67691 603.870544 138.417908 598.953979 138.417908 C 593.88916 138.417908 590.004578 140.67691 587.359497 145.194916 C 585.093933 148.936188 583.967102 153.483856 583.967102 158.855652 C 583.967102 164.073303 585.093933 168.555725 587.359497 172.285156 C 590.093506 176.803131 593.906982 179.062134 598.847229 179.062134 C 603.680786 179.062134 607.47052 176.755707 610.21051 172.172485 C 612.535339 168.342255 613.703674 163.842041 613.703674 158.6185 Z M 667.928162 141.465485 C 666.613037 141.228119 665.279053 141.111053 663.942688 141.115662 C 659.494629 141.115662 656.054871 142.787689 653.635132 146.155426 C 651.535645 149.119995 650.47998 152.867218 650.47998 157.391144 L 650.47998 187.244354 L 637.835693 187.244354 L 637.835693 148.266205 C 637.847046 142.293579 637.724365 136.321442 637.468018 130.354279 L 648.481384 130.354279 L 648.943909 141.240173 L 649.293884 141.240173 C 650.634216 137.498901 652.733643 134.480957 655.615967 132.221985 C 658.254272 130.248016 661.4599 129.179077 664.755188 129.174377 C 665.923523 129.174377 666.979187 129.257416 667.91626 129.40564 L 667.928162 141.465485 Z M 724.477417 156.104523 C 724.509521 158.026154 724.354553 159.94635 724.014832 161.838013 L 686.082031 161.838013 C 686.224365 167.458832 688.062866 171.763367 691.585754 174.727936 C 694.78241 177.372345 698.916077 178.70047 703.992798 178.70047 C 709.609131 178.70047 714.733276 177.811096 719.341431 176.014557 L 721.322266 184.783752 C 715.937256 187.131714 709.579468 188.299744 702.243164 188.299744 C 693.418274 188.299744 686.491272 185.702789 681.450134 180.520721 C 676.420898 175.332733 673.90033 168.360046 673.90033 159.626434 C 673.90033 151.052887 676.242981 143.908295 680.934204 138.210388 C 685.844788 132.127106 692.481262 129.085449 700.831665 129.085449 C 709.033875 129.085449 715.243286 132.127106 719.460022 138.210388 C 722.799072 143.030792 724.477417 149.007355 724.477417 156.104523 Z M 712.420288 152.825714 C 712.509277 149.072571 711.678955 145.841187 709.964966 143.107849 C 707.77655 139.585938 704.407959 137.830933 699.894653 137.830933 C 695.760986 137.830933 692.392334 139.544434 689.830261 142.983337 C 687.724854 145.716675 686.47345 149.001434 686.087952 152.813873 L 712.420288 152.825714 Z"/>
        </g>
        <g id="g3">
            <path id="path7" fill="#ffffff" stroke="none" d="M 268.133209 80.44281 C 264.616302 80.44281 261.573853 80.270874 259.041443 79.980347 L 259.041443 41.832275 C 262.583313 41.285278 266.162506 41.015686 269.746368 41.025909 C 284.246948 41.025909 290.924927 48.158661 290.924927 59.785706 C 290.924927 73.197418 283.037079 80.44281 268.133209 80.44281 Z M 270.256409 45.91745 C 268.299255 45.91745 266.632751 46.036041 265.250885 46.320648 L 265.250885 75.320038 C 265.998169 75.438629 267.43338 75.491974 269.449829 75.491974 C 278.950836 75.491974 284.359619 70.084625 284.359619 59.957642 C 284.359619 50.927582 279.466797 45.91745 270.256409 45.91745 Z M 311.735779 80.733337 C 303.563263 80.733337 298.267151 74.632263 298.267151 66.349274 C 298.267151 57.716431 303.675934 51.561981 312.198364 51.561981 C 320.252289 51.561981 325.666992 57.372559 325.666992 65.8927 C 325.666992 74.632263 320.086212 80.733337 311.735779 80.733337 Z M 311.973022 56.103699 C 307.483459 56.103699 304.607056 60.301544 304.607056 66.171387 C 304.607056 71.928589 307.542755 76.126404 311.913696 76.126404 C 316.284637 76.126404 319.220337 71.638031 319.220337 66.052795 C 319.220337 60.36084 316.343933 56.103699 311.973022 56.103699 Z M 372.270508 52.137115 L 363.522705 80.098907 L 357.823303 80.098907 L 354.199646 67.956055 C 353.298645 64.98584 352.548431 61.971954 351.951904 58.925995 L 351.833282 58.925995 C 351.376648 61.973541 350.510742 65.027069 349.591461 67.956055 L 345.736542 80.098907 L 339.977814 80.098907 L 331.745972 52.137115 L 338.133362 52.137115 L 341.300354 65.430237 C 342.047607 68.596405 342.67627 71.584686 343.198181 74.406952 L 343.316803 74.406952 C 343.773468 72.053101 344.520721 69.112244 345.61792 65.489532 L 349.591461 52.143036 L 354.656311 52.143036 L 358.457886 65.204926 C 359.377167 68.371094 360.12442 71.477966 360.705627 74.412872 L 360.871674 74.412872 C 361.274963 71.537262 361.909546 68.483734 362.769501 65.204926 L 366.167816 52.143036 L 372.270508 52.137115 Z M 404.474243 80.098907 L 398.258881 80.098907 L 398.258881 64.042816 C 398.258881 59.097931 396.361053 56.619537 392.618744 56.619537 C 388.935791 56.619537 386.403381 59.785706 386.403381 63.467712 L 386.403381 80.098907 L 380.188019 80.098907 L 380.188019 60.129578 C 380.188019 57.657135 380.128693 55.006805 379.956726 52.131195 L 385.424805 52.131195 L 385.715424 56.447601 L 385.887421 56.447601 C 387.559875 53.45932 390.952209 51.561981 394.753815 51.561981 C 400.625244 51.561981 404.480164 56.050354 404.480164 63.355042 L 404.474243 80.098907 Z M 421.613983 80.098907 L 415.39267 80.098907 L 415.39267 39.306458 L 421.613983 39.306458 L 421.613983 80.098907 Z M 444.275238 80.733337 C 436.108612 80.733337 430.80658 74.632263 430.80658 66.349274 C 430.80658 57.716431 436.215393 51.561981 444.731873 51.561981 C 452.791718 51.561981 458.200531 57.372559 458.200531 65.8927 C 458.206482 74.632263 452.61972 80.733337 444.275238 80.733337 Z M 444.5065 56.103699 C 440.016968 56.103699 437.140594 60.301544 437.140594 66.171387 C 437.140594 71.928589 440.082214 76.126404 444.441315 76.126404 C 448.818146 76.126404 451.747894 71.638031 451.747894 66.052795 C 451.753845 60.36084 448.883392 56.103699 444.5065 56.103699 Z M 482.706207 80.098907 L 482.255493 76.879395 L 482.089417 76.879395 C 480.19162 79.470428 477.421936 80.733337 473.91095 80.733337 C 468.899536 80.733337 465.341095 77.223297 465.341095 72.503693 C 465.341095 65.602173 471.325195 62.032837 481.686127 62.032837 L 481.686127 61.516998 C 481.686127 57.835022 479.734924 55.991058 475.879944 55.991058 C 473.122192 55.991058 470.702454 56.684753 468.573364 58.066254 L 467.310089 53.981079 C 469.895905 52.368347 473.122192 51.561981 476.911926 51.561981 C 484.218567 51.561981 487.90744 55.415924 487.90744 63.12973 L 487.90744 73.42865 C 487.90744 76.250916 488.031982 78.438751 488.31073 80.104858 L 482.706207 80.098907 Z M 481.852203 66.171387 C 474.948853 66.171387 471.485321 67.843414 471.485321 71.809998 C 471.485321 74.744904 473.270477 76.179779 475.749512 76.179779 C 478.910553 76.179779 481.852203 73.766602 481.852203 70.487793 L 481.852203 66.171387 Z M 518.088806 80.098907 L 517.798218 75.610565 L 517.626221 75.610565 C 515.841064 79.002045 512.840149 80.733337 508.647125 80.733337 C 501.9039 80.733337 496.910278 74.804199 496.910278 66.461914 C 496.910278 57.716431 502.087738 51.556061 509.157166 51.556061 C 512.899475 51.556061 515.550476 52.81897 517.044983 55.356628 L 517.169556 55.356628 L 517.169556 39.306458 L 523.390869 39.306458 L 523.390869 72.562988 C 523.390869 75.266693 523.456116 77.798431 523.622192 80.098907 L 518.088806 80.098907 Z M 517.169556 63.645569 C 517.169556 59.73233 514.57782 56.394226 510.62204 56.394226 C 506.013885 56.394226 503.196808 60.479401 503.196808 66.230682 C 503.196808 71.869293 506.120636 75.729156 510.497528 75.729156 C 514.405823 75.729156 517.169556 72.331757 517.169556 68.305878 L 517.169556 63.645569 Z M 562.835999 80.733337 C 554.669434 80.733337 549.373291 74.632263 549.373291 66.349274 C 549.373291 57.716431 554.782104 51.561981 563.298584 51.561981 C 571.358398 51.561981 576.767212 57.372559 576.767212 65.8927 C 576.773132 74.632263 571.192322 80.733337 562.835999 80.733337 Z M 563.067322 56.103699 C 558.583679 56.103699 555.707275 60.301544 555.707275 66.171387 C 555.707275 71.928589 558.643005 76.126404 563.007996 76.126404 C 567.384827 76.126404 570.314636 71.638031 570.314636 66.052795 C 570.326477 60.36084 567.450073 56.103699 563.067322 56.103699 Z M 610.192688 80.098907 L 603.971375 80.098907 L 603.971375 64.042816 C 603.971375 59.097931 602.073547 56.619537 598.331299 56.619537 C 594.648315 56.619537 592.121826 59.785706 592.121826 63.467712 L 592.121826 80.098907 L 585.900513 80.098907 L 585.900513 60.129578 C 585.900513 57.657135 585.841187 55.006805 585.669189 52.131195 L 591.137329 52.131195 L 591.427917 56.447601 L 591.599915 56.447601 C 593.266418 53.45932 596.664795 51.556061 600.460449 51.556061 C 606.331787 51.556061 610.192688 56.044434 610.192688 63.349121 L 610.192688 80.098907 Z M 652.010132 56.797424 L 645.172058 56.797424 L 645.172058 70.375153 C 645.172058 73.831818 646.369995 75.55719 648.789734 75.55719 C 649.886963 75.55719 650.806213 75.438629 651.547546 75.266693 L 651.719482 79.986267 C 650.515564 80.44873 648.902405 80.679993 646.897827 80.679993 C 641.999084 80.679993 639.069275 77.976288 639.069275 70.896912 L 639.069275 56.797424 L 634.989014 56.797424 L 634.989014 52.137115 L 639.069275 52.137115 L 639.069275 47.014343 L 645.172058 45.17038 L 645.172058 52.131195 L 652.010132 52.131195 L 652.010132 56.797424 Z M 684.913696 80.098907 L 678.704224 80.098907 L 678.704224 64.161407 C 678.704224 59.157227 676.812378 56.625458 673.064148 56.625458 C 669.84375 56.625458 666.842834 58.813324 666.842834 63.242401 L 666.842834 80.098907 L 660.633362 80.098907 L 660.633362 39.306458 L 666.842834 39.306458 L 666.842834 56.103699 L 666.967346 56.103699 C 668.9245 53.056122 671.759338 51.556061 675.377075 51.556061 C 681.295959 51.556061 684.913696 56.157074 684.913696 63.467712 L 684.913696 80.098907 Z M 718.62384 67.612152 L 699.971741 67.612152 C 700.090332 72.906891 703.595398 75.895172 708.78479 75.895172 C 711.542542 75.895172 714.080872 75.432709 716.322693 74.572968 L 717.289429 78.889374 C 714.644348 80.039642 711.530701 80.614777 707.907043 80.614777 C 699.159241 80.614777 693.98175 75.088806 693.98175 66.52121 C 693.98175 57.947662 699.283752 51.502686 707.207214 51.502686 C 714.353699 51.502686 718.837341 56.797424 718.837341 64.795837 C 718.877502 65.739746 718.805847 66.685089 718.62384 67.612152 Z M 712.924438 63.183105 C 712.924438 58.866699 710.747864 55.819122 706.774231 55.819122 C 703.203979 55.819122 700.380981 58.925995 699.977661 63.183105 L 712.924438 63.183105 Z"/>
        </g>
    </g>
</svg>
