<?xml version="1.0" encoding="UTF-8"?>
<!-- Generated by Pixelmator Pro 3.2.3 -->
<svg width="128" height="40" viewBox="0 0 128 40" xmlns="http://www.w3.org/2000/svg" xmlns:xlink="http://www.w3.org/1999/xlink">
    <g id="g1">
        <path id="path1" fill="#000000" stroke="none" d="M 124 40 L 4 40 C 1.800003 40 0 38.200001 0 36 L 0 4 C 0 1.800003 1.800003 0 4 0 L 124 0 C 126.200012 0 128 1.800003 128 4 L 128 36 C 128 38.200001 126.200012 40 124 40 Z"/>
        <linearGradient id="linearGradient1" x1="16.2674" y1="6.5736" x2="21.8656" y2="29.5645" gradientUnits="userSpaceOnUse">
            <stop offset="1e-05" stop-color="#006884" stop-opacity="1"/>
            <stop offset="1" stop-color="#8ad1d0" stop-opacity="1"/>
        </linearGradient>
        <path id="path2" fill="url(#linearGradient1)" fill-rule="evenodd" stroke="none" d="M 9.800003 19.599998 L 9.800003 9.099998 C 9.800003 8.5 10.300003 8 10.800003 8 C 11.300003 8 11.5 8.099998 11.800003 8.300003 L 31.100006 18.900002 C 31.5 19.099998 31.699997 19.400002 31.699997 19.699997 C 31.699997 20 31.5 20.299999 31.100006 20.5 L 11.800003 31.099998 C 11.600006 31.200001 11.300003 31.400002 10.800003 31.400002 C 10.300003 31.400002 9.800003 30.900002 9.800003 30.299999 L 9.800003 19.599998 Z"/>
        <linearGradient id="linearGradient2" x1="9.4407" y1="9.8438" x2="24.6967" y2="18.0913" gradientUnits="userSpaceOnUse">
            <stop offset="1e-05" stop-color="#24bbb6" stop-opacity="1"/>
            <stop offset="1" stop-color="#dbe692" stop-opacity="1"/>
        </linearGradient>
        <path id="path3" fill="url(#linearGradient2)" fill-rule="evenodd" stroke="none" d="M 22.300003 19.699997 L 10.600006 8 C 10.699997 8 10.699997 8 10.800003 8 C 11.300003 8 11.5 8.099998 11.800003 8.300003 L 26 16.099998 L 22.300003 19.699997 Z"/>
        <linearGradient id="linearGradient3" x1="26.9944" y1="23.6201" x2="26.9944" y2="15.6717" gradientUnits="userSpaceOnUse">
            <stop offset="1e-05" stop-color="#fcc072" stop-opacity="1"/>
            <stop offset="1" stop-color="#f58a5b" stop-opacity="1"/>
        </linearGradient>
        <path id="path4" fill="url(#linearGradient3)" fill-rule="evenodd" stroke="none" d="M 25.899994 23.200001 L 22.300003 19.599998 L 26 15.900002 L 31.100006 18.699997 C 31.5 18.900002 31.699997 19.199997 31.699997 19.5 C 31.699997 19.800003 31.5 20.099998 31.100006 20.299999 L 25.899994 23.200001 Z"/>
        <linearGradient id="linearGradient4" x1="12.3947" y1="33.2691" x2="24.4464" y2="21.0039" gradientUnits="userSpaceOnUse">
            <stop offset="1e-05" stop-color="#712b8f" stop-opacity="1"/>
            <stop offset="1" stop-color="#ea1d27" stop-opacity="1"/>
        </linearGradient>
        <path id="path5" fill="url(#linearGradient4)" fill-rule="evenodd" stroke="none" d="M 10.699997 31.200001 L 10.699997 31.200001 L 22.300003 19.599998 L 25.899994 23.200001 L 11.800003 30.900002 C 11.5 31.099998 11.300003 31.200001 10.699997 31.200001 C 10.800003 31.200001 10.800003 31.200001 10.699997 31.200001 Z"/>
        <path id="path6" fill="#ffffff" fill-rule="evenodd" stroke="none" d="M 71.100006 33.900002 C 70.600006 33.5 70.199997 32.799999 70 32.400002 L 71.600006 31.700001 C 71.700012 31.900002 71.899994 32.200001 72.100006 32.5 C 72.5 32.900002 73.100006 33.299999 73.700012 33.299999 C 74.299988 33.299999 75 33 75.399994 32.5 C 75.700012 32 75.899994 31.5 75.899994 30.799999 L 75.899994 30.200001 C 74.700012 31.700001 72.200012 31.5 70.799988 29.900002 C 69.300003 28.299999 69.300003 25.599998 70.799988 24 C 72.299988 22.5 74.5 22.299999 75.799988 23.700001 C 75.799988 23.700001 75.799988 23.700001 75.799988 23.700001 L 75.799988 23 L 77.5 23 L 77.5 30.5 C 77.5 32.400002 76.799988 33.5 75.899994 34.200001 C 75.299988 34.700001 74.399994 34.900002 73.600006 34.900002 C 72.700012 34.799999 71.799988 34.5 71.100006 33.900002 L 71.100006 33.900002 Z M 113 34.299999 L 113 34.299999 L 114.700012 30.299999 L 111.700012 23.400002 L 113.399994 23.400002 L 115.5 28.299999 L 117.600006 23.400002 L 119.299988 23.400002 L 114.700012 34.299999 L 113 34.299999 L 113 34.299999 Z M 104.899994 30.5 L 104.899994 30.5 C 104.399994 30 104.200012 29.299999 104.200012 28.599998 C 104.200012 28 104.399994 27.400002 104.799988 27 C 105.5 26.299999 106.5 26 107.600006 26 C 108.299988 26 108.899994 26.099998 109.399994 26.400002 C 109.399994 25.200001 108.399994 24.700001 107.600006 24.700001 C 106.899994 24.700001 106.200012 25.099998 105.899994 25.799999 L 104.399994 25.200001 C 104.700012 24.5 105.5 23.200001 107.5 23.200001 C 108.5 23.200001 109.5 23.5 110.100006 24.200001 C 110.700012 24.900002 110.899994 25.700001 110.899994 26.799999 L 110.899994 31 L 109.200012 31 L 109.200012 30.299999 C 109 30.599998 108.600006 30.799999 108.299988 31 C 107.899994 31.200001 107.399994 31.299999 106.899994 31.299999 C 106.299988 31.200001 105.399994 31 104.899994 30.5 L 104.899994 30.5 Z M 51.600006 26.900002 L 51.600006 26.900002 C 51.600006 24.900002 53.100006 22.700001 55.800003 22.700001 C 58.399994 22.700001 60 24.900002 60 26.900002 C 60 28.900002 58.5 31.099998 55.800003 31.099998 C 53.100006 31.099998 51.600006 28.900002 51.600006 26.900002 L 51.600006 26.900002 Z M 60.600006 26.900002 L 60.600006 26.900002 C 60.600006 24.900002 62.100006 22.700001 64.800003 22.700001 C 67.399994 22.700001 69 24.900002 69 26.900002 C 69 28.900002 67.5 31.099998 64.800003 31.099998 C 62.199997 31.099998 60.600006 28.900002 60.600006 26.900002 L 60.600006 26.900002 Z M 40.300003 29.099998 L 40.300003 29.099998 C 37.800003 26.599998 37.899994 22.5 40.399994 19.900002 C 41.699997 18.599998 43.300003 18 45 18 C 46.600006 18 48.199997 18.599998 49.399994 19.800003 L 48.199997 21.099998 C 46.399994 19.300003 43.5 19.400002 41.800003 21.200001 C 40 23.099998 40 26 41.800003 27.900002 C 43.600006 29.799999 46.600006 29.900002 48.399994 28 C 49 27.400002 49.199997 26.599998 49.300003 25.799999 L 45.100006 25.799999 L 45.100006 24 L 51 24 C 51.100006 24.400002 51.100006 24.900002 51.100006 25.400002 C 51.100006 26.900002 50.5 28.400002 49.5 29.400002 C 48.399994 30.5 46.800003 31.099998 45.199997 31.099998 C 43.399994 31 41.600006 30.400002 40.300003 29.099998 L 40.300003 29.099998 Z M 82.600006 29.799999 L 82.600006 29.799999 C 81.100006 28.200001 81.100006 25.5 82.600006 23.799999 C 84.100006 22.200001 86.600006 22.200001 88 23.799999 C 88.5 24.299999 88.799988 25 89.100006 25.700001 L 83.600006 28 C 83.899994 28.700001 84.600006 29.299999 85.600006 29.299999 C 86.5 29.299999 87.100006 29 87.700012 28.099998 L 89.200012 29.099998 L 89.200012 29.099998 C 89 29.299999 88.799988 29.5 88.700012 29.700001 C 87 31.400002 84.100006 31.400002 82.600006 29.799999 L 82.600006 29.799999 Z M 93 31 L 93 31 L 93 19.900002 L 96.600006 19.900002 C 98.700012 19.900002 100.399994 21.400002 100.399994 23.200001 C 100.399994 25 98.899994 26.5 97 26.5 L 94.799988 26.5 L 94.799988 30.900002 L 93 30.900002 L 93 31 Z M 101.399994 31 L 101.399994 31 L 101.399994 19.900002 L 103.100006 19.900002 L 103.100006 31 L 101.399994 31 L 101.399994 31 Z M 78.799988 30.799999 L 78.799988 30.799999 L 78.799988 18.400002 L 80.600006 18.400002 L 80.600006 30.799999 L 78.799988 30.799999 L 78.799988 30.799999 Z M 109.299988 27.700001 L 109.299988 27.700001 C 108.899994 27.400002 108.299988 27.299999 107.700012 27.299999 C 106.5 27.299999 105.799988 27.900002 105.799988 28.599998 C 105.799988 29.299999 106.5 29.700001 107.200012 29.700001 C 108.200012 29.700001 109.299988 28.900002 109.299988 27.700001 L 109.299988 27.700001 Z M 58.100006 26.900002 L 58.100006 26.900002 C 58.100006 25.700001 57.300003 24.400002 55.800003 24.400002 C 54.300003 24.400002 53.5 25.700001 53.5 26.900002 C 53.5 28.099998 54.300003 29.400002 55.800003 29.400002 C 57.199997 29.400002 58.100006 28.099998 58.100006 26.900002 L 58.100006 26.900002 Z M 67.100006 26.900002 L 67.100006 26.900002 C 67.100006 25.700001 66.300003 24.400002 64.800003 24.400002 C 63.300003 24.400002 62.5 25.700001 62.5 26.900002 C 62.5 28.099998 63.300003 29.400002 64.800003 29.400002 C 66.300003 29.400002 67.100006 28.099998 67.100006 26.900002 L 67.100006 26.900002 Z M 76 27.599998 L 76 27.599998 C 76 27.5 76 27.400002 76.100006 27.299999 C 76.100006 27.299999 76.100006 27.299999 76.100006 27.299999 C 76.100006 27.200001 76.100006 27 76.100006 26.900002 C 76.100006 26.799999 76.100006 26.599998 76.100006 26.5 C 76.100006 26.5 76.100006 26.400002 76.100006 26.400002 C 76.100006 26.299999 76 26.099998 76 26 C 75.700012 25 74.799988 24.299999 73.899994 24.299999 C 72.700012 24.299999 71.700012 25.5 71.700012 26.799999 C 71.700012 28.200001 72.700012 29.299999 74 29.299999 C 74.799988 29.400002 75.600006 28.700001 76 27.599998 L 76 27.599998 Z M 83.299988 26.700001 L 83.299988 26.700001 L 87 25.099998 C 86.600006 24.400002 86 24.200001 85.5 24.200001 C 84 24.299999 83.100006 25.900002 83.299988 26.700001 L 83.299988 26.700001 Z M 98.600006 23.299999 L 98.600006 23.299999 C 98.600006 22.299999 97.799988 21.599998 96.700012 21.599998 L 94.700012 21.599998 L 94.700012 25.099998 L 96.799988 25.099998 C 97.799988 25.099998 98.600006 24.299999 98.600006 23.299999 Z"/>
        <path id="path7" fill="#ffffff" fill-rule="evenodd" stroke="none" d="M 114.299988 32.299999 L 114.299988 32.299999 L 114.200012 32.299999 L 114.200012 32.299999 L 114.200012 32.200001 L 114.200012 32.200001 L 114.299988 32.200001 L 114.299988 32.200001 L 114.200012 32.200001 L 114.200012 32.200001 L 114.200012 32.299999 L 114.200012 32.299999 Z"/>
        <path id="path8" fill="#ffffff" fill-rule="evenodd" stroke="none" d="M 114.299988 32.299999 L 114.299988 32.299999 C 114.299988 32.200001 114.299988 32.200001 114.299988 32.299999 L 114.299988 32.299999 C 114.299988 32.200001 114.299988 32.200001 114.299988 32.299999 L 114.299988 32.299999 L 114.299988 32.299999 L 114.299988 32.299999 L 114.299988 32.299999 L 114.299988 32.299999 L 114.299988 32.299999 L 114.299988 32.299999 L 114.299988 32.299999 Z M 114.299988 32.200001 L 114.299988 32.200001 C 114.299988 32.200001 114.299988 32.200001 114.299988 32.200001 L 114.299988 32.200001 L 114.299988 32.200001 L 114.299988 32.200001 C 114.299988 32.200001 114.299988 32.200001 114.299988 32.200001 L 114.299988 32.200001 Z"/>
        <path id="path9" fill="#ffffff" fill-rule="evenodd" stroke="none" d="M 114.299988 32.299999 L 114.299988 32.299999 L 114.299988 32.200001 L 114.299988 32.200001 L 114.299988 32.200001 L 114.299988 32.200001 L 114.299988 32.200001 L 114.299988 32.200001 L 114.299988 32.200001 L 114.299988 32.200001 L 114.299988 32.299999 L 114.299988 32.299999 Z"/>
        <path id="path10" fill="#ffffff" fill-rule="evenodd" stroke="none" d="M 114.299988 32.299999 L 114.299988 32.299999 L 114.299988 32.299999 L 114.299988 32.299999 L 114.299988 32.299999 L 114.299988 32.299999 L 114.299988 32.299999 L 114.299988 32.299999 L 114.299988 32.299999 L 114.299988 32.299999 Z M 114.299988 32.200001 L 114.299988 32.200001 L 114.299988 32.200001 L 114.299988 32.200001 C 114.299988 32.200001 114.299988 32.200001 114.299988 32.200001 C 114.299988 32.200001 114.299988 32.200001 114.299988 32.200001 L 114.299988 32.200001 Z"/>
        <path id="path11" fill="#ffffff" fill-rule="evenodd" stroke="none" d="M 114.299988 32.200001 L 114.299988 32.200001 L 114.299988 32.200001 L 114.299988 32.200001 L 114.299988 32.299999 L 114.299988 32.299999 L 114.299988 32.200001 L 114.299988 32.200001 Z"/>
        <path id="path12" fill="#ffffff" fill-rule="evenodd" stroke="none" d="M 114.299988 32.299999 L 114.299988 32.299999 L 114.299988 32.200001 L 114.299988 32.200001 L 114.299988 32.200001 L 114.299988 32.200001 L 114.299988 32.200001 L 114.299988 32.200001 L 114.299988 32.200001 L 114.299988 32.200001 L 114.299988 32.299999 L 114.299988 32.299999 Z"/>
        <path id="path13" fill="#ffffff" fill-rule="evenodd" stroke="none" d="M 114.299988 32.299999 L 114.299988 32.299999 C 114.299988 32.200001 114.299988 32.200001 114.299988 32.299999 L 114.299988 32.299999 L 114.299988 32.299999 L 114.299988 32.299999 C 114.299988 32.299999 114.299988 32.299999 114.299988 32.299999 L 114.299988 32.299999 Z M 114.299988 32.299999 L 114.299988 32.299999 C 114.299988 32.299999 114.299988 32.299999 114.299988 32.299999 L 114.299988 32.299999 L 114.299988 32.299999 L 114.299988 32.299999 C 114.299988 32.200001 114.299988 32.200001 114.299988 32.299999 L 114.299988 32.299999 Z"/>
        <path id="path14" fill="#ffffff" fill-rule="evenodd" stroke="none" d="M 114.399994 32.299999 L 114.399994 32.299999 C 114.399994 32.200001 114.399994 32.200001 114.399994 32.299999 C 114.399994 32.200001 114.399994 32.200001 114.399994 32.299999 L 114.399994 32.299999 C 114.399994 32.200001 114.399994 32.200001 114.399994 32.299999 L 114.399994 32.299999 L 114.399994 32.299999 L 114.399994 32.299999 C 114.399994 32.299999 114.399994 32.299999 114.399994 32.299999 L 114.399994 32.299999 Z M 114.399994 32.200001 L 114.399994 32.200001 C 114.399994 32.200001 114.399994 32.200001 114.399994 32.200001 L 114.399994 32.200001 L 114.399994 32.200001 L 114.399994 32.200001 C 114.399994 32.200001 114.399994 32.200001 114.399994 32.200001 L 114.399994 32.200001 L 114.399994 32.200001 Z M 114.399994 32.299999 L 114.399994 32.299999 C 114.399994 32.299999 114.399994 32.299999 114.399994 32.299999 L 114.399994 32.299999 L 114.399994 32.299999 L 114.399994 32.299999 C 114.399994 32.200001 114.399994 32.200001 114.399994 32.299999 L 114.399994 32.299999 Z"/>
        <path id="path15" fill="#ffffff" fill-rule="evenodd" stroke="none" d="M 114.399994 32.200001 L 114.399994 32.200001 L 114.399994 32.200001 L 114.399994 32.200001 L 114.399994 32.200001 L 114.399994 32.200001 L 114.399994 32.200001 L 114.399994 32.200001 L 114.399994 32.299999 L 114.399994 32.299999 L 114.399994 32.200001 Z"/>
        <path id="path16" fill="#ffffff" fill-rule="evenodd" stroke="none" d="M 114.399994 32.299999 L 114.399994 32.299999 L 114.399994 32.200001 L 114.399994 32.200001 L 114.399994 32.299999 L 114.399994 32.299999 Z"/>
        <path id="path17" fill="#ffffff" fill-rule="evenodd" stroke="none" d="M 114.399994 32.299999 L 114.399994 32.299999 C 114.399994 32.200001 114.399994 32.200001 114.399994 32.299999 C 114.399994 32.200001 114.399994 32.200001 114.399994 32.299999 L 114.399994 32.299999 C 114.399994 32.299999 114.399994 32.299999 114.399994 32.299999 C 114.399994 32.299999 114.399994 32.299999 114.399994 32.299999 L 114.399994 32.299999 Z M 114.399994 32.200001 L 114.399994 32.200001 C 114.399994 32.299999 114.399994 32.299999 114.399994 32.200001 C 114.399994 32.299999 114.399994 32.299999 114.399994 32.200001 L 114.399994 32.200001 C 114.399994 32.200001 114.399994 32.200001 114.399994 32.200001 C 114.399994 32.200001 114.399994 32.200001 114.399994 32.200001 L 114.399994 32.200001 Z"/>
        <path id="path18" fill="#ffffff" fill-rule="evenodd" stroke="none" d="M 114.399994 32.299999 L 114.399994 32.299999 L 114.399994 32.299999 L 114.399994 32.299999 L 114.399994 32.299999 L 114.399994 32.299999 C 114.399994 32.299999 114.399994 32.299999 114.399994 32.299999 C 114.399994 32.299999 114.399994 32.299999 114.399994 32.299999 L 114.399994 32.299999 C 114.399994 32.200001 114.399994 32.200001 114.399994 32.299999 C 114.399994 32.200001 114.399994 32.200001 114.399994 32.299999 L 114.399994 32.299999 C 114.399994 32.200001 114.399994 32.200001 114.399994 32.299999 C 114.399994 32.200001 114.399994 32.200001 114.399994 32.299999 L 114.399994 32.299999 C 114.399994 32.299999 114.399994 32.299999 114.399994 32.299999 C 114.399994 32.299999 114.399994 32.299999 114.399994 32.299999 L 114.399994 32.299999 Z"/>
        <path id="path19" fill="#ffffff" fill-rule="evenodd" stroke="none" d="M 114.5 32.299999 L 114.5 32.299999 C 114.5 32.200001 114.5 32.200001 114.5 32.299999 C 114.399994 32.200001 114.399994 32.200001 114.5 32.299999 L 114.5 32.299999 C 114.399994 32.299999 114.399994 32.299999 114.5 32.299999 C 114.5 32.299999 114.5 32.299999 114.5 32.299999 L 114.5 32.299999 Z M 114.5 32.200001 L 114.5 32.200001 C 114.5 32.299999 114.5 32.299999 114.5 32.200001 C 114.5 32.299999 114.399994 32.299999 114.5 32.200001 L 114.5 32.200001 C 114.399994 32.200001 114.5 32.200001 114.5 32.200001 C 114.5 32.200001 114.5 32.200001 114.5 32.200001 L 114.5 32.200001 Z"/>
        <path id="path20" fill="#ffffff" fill-rule="evenodd" stroke="none" d="M 114.5 32.299999 L 114.5 32.200001 L 114.5 32.200001 L 114.5 32.200001 L 114.5 32.200001 L 114.5 32.200001 L 114.5 32.299999 L 114.5 32.299999 L 114.5 32.200001 L 114.5 32.200001 L 114.5 32.299999 L 114.5 32.299999 L 114.5 32.200001 L 114.5 32.200001 L 114.5 32.299999 Z"/>
        <path id="path21" fill="#ffffff" fill-rule="evenodd" stroke="none" d="M 114.5 32.299999 L 114.5 32.299999 L 114.5 32.299999 L 114.5 32.299999 L 114.5 32.299999 L 114.5 32.299999 L 114.5 32.299999 L 114.5 32.299999 L 114.5 32.299999 L 114.5 32.299999 Z M 114.5 32.200001 L 114.5 32.200001 L 114.5 32.200001 L 114.5 32.200001 C 114.5 32.200001 114.5 32.200001 114.5 32.200001 C 114.5 32.200001 114.5 32.200001 114.5 32.200001 L 114.5 32.200001 Z"/>
        <path id="path22" fill="#ffffff" fill-rule="evenodd" stroke="none" d="M 114.5 32.299999 C 114.5 32.200001 114.5 32.200001 114.5 32.299999 C 114.5 32.200001 114.5 32.200001 114.5 32.299999 C 114.5 32.200001 114.5 32.200001 114.5 32.299999 C 114.5 32.200001 114.5 32.200001 114.5 32.299999 L 114.5 32.299999 C 114.5 32.200001 114.5 32.200001 114.5 32.299999 C 114.5 32.200001 114.5 32.200001 114.5 32.299999 C 114.5 32.200001 114.5 32.200001 114.5 32.299999 C 114.5 32.200001 114.5 32.200001 114.5 32.299999 C 114.5 32.299999 114.5 32.299999 114.5 32.299999 C 114.5 32.299999 114.5 32.299999 114.5 32.299999 L 114.5 32.299999 C 114.5 32.299999 114.5 32.299999 114.5 32.299999 C 114.5 32.299999 114.5 32.299999 114.5 32.299999 Z"/>
        <path id="path23" fill="#ffffff" fill-rule="evenodd" stroke="none" d="M 114.600006 32.200001 L 114.5 32.200001 L 114.5 32.200001 L 114.600006 32.200001 L 114.600006 32.299999 L 114.600006 32.299999 L 114.600006 32.200001 L 114.600006 32.200001 Z"/>
        <path id="path24" fill="#ffffff" fill-rule="evenodd" stroke="none" d="M 114.600006 32.299999 L 114.600006 32.299999 L 114.600006 32.200001 L 114.600006 32.200001 L 114.600006 32.200001 L 114.600006 32.200001 L 114.600006 32.200001 L 114.600006 32.200001 L 114.600006 32.200001 L 114.600006 32.200001 L 114.600006 32.299999 L 114.600006 32.299999 Z"/>
        <path id="path25" fill="#ffffff" fill-rule="evenodd" stroke="none" d="M 114.600006 32.299999 L 114.600006 32.299999 C 114.600006 32.200001 114.600006 32.200001 114.600006 32.299999 L 114.600006 32.299999 C 114.600006 32.200001 114.600006 32.200001 114.600006 32.299999 L 114.600006 32.299999 L 114.600006 32.299999 L 114.600006 32.299999 L 114.600006 32.299999 L 114.600006 32.299999 L 114.600006 32.299999 L 114.600006 32.299999 L 114.600006 32.299999 Z M 114.600006 32.200001 L 114.600006 32.200001 C 114.600006 32.200001 114.600006 32.200001 114.600006 32.200001 L 114.600006 32.200001 L 114.600006 32.200001 L 114.600006 32.200001 C 114.600006 32.200001 114.600006 32.200001 114.600006 32.200001 L 114.600006 32.200001 Z"/>
        <path id="path26" fill="#ffffff" stroke="none" d="M 38.899994 10.099998 C 38.899994 8.300003 40.199997 7.199997 41.800003 7.199997 C 42.899994 7.199997 43.600006 7.699997 44.100006 8.400002 L 43.300003 8.900002 C 43 8.5 42.5 8.199997 41.800003 8.199997 C 40.699997 8.199997 39.899994 9 39.899994 10.199997 C 39.899994 11.400002 40.699997 12.199997 41.800003 12.199997 C 42.399994 12.199997 42.899994 11.900002 43.100006 11.699997 L 43.100006 10.800003 L 41.5 10.800003 L 41.5 9.900002 L 44.199997 9.900002 L 44.199997 12 C 43.699997 12.599998 42.899994 13 41.899994 13 C 40.199997 13 38.899994 11.800003 38.899994 10.099998 Z"/>
        <path id="path27" fill="#ffffff" stroke="none" d="M 45.399994 12.900002 L 45.399994 7.300003 L 49.199997 7.300003 L 49.199997 8.199997 L 46.300003 8.199997 L 46.300003 9.599998 L 49.100006 9.599998 L 49.100006 10.5 L 46.300003 10.5 L 46.300003 12.099998 L 49.199997 12.099998 L 49.199997 13 L 45.399994 12.900002 L 45.399994 12.900002 Z"/>
        <path id="path28" fill="#ffffff" stroke="none" d="M 52 12.900002 L 52 8.199997 L 50.300003 8.199997 L 50.300003 7.300003 L 54.699997 7.300003 L 54.699997 8.199997 L 53 8.199997 L 53 12.900002 L 52 12.900002 Z"/>
        <path id="path29" fill="#ffffff" stroke="none" d="M 58.100006 12.900002 L 58.100006 7.300003 L 59.100006 7.300003 L 59.100006 12.900002 C 59.100006 12.900002 58.100006 12.900002 58.100006 12.900002 Z"/>
        <path id="path30" fill="#ffffff" stroke="none" d="M 61.800003 12.900002 L 61.800003 8.199997 L 60.100006 8.199997 L 60.100006 7.300003 L 64.5 7.300003 L 64.5 8.199997 L 62.800003 8.199997 L 62.800003 12.900002 L 61.800003 12.900002 Z"/>
        <path id="path31" fill="#ffffff" stroke="none" d="M 67.699997 10.099998 C 67.699997 8.400002 68.899994 7.199997 70.600006 7.199997 C 72.299988 7.199997 73.5 8.400002 73.5 10.099998 C 73.5 11.800003 72.299988 13 70.600006 13 C 68.899994 13 67.699997 11.699997 67.699997 10.099998 Z M 72.399994 10.099998 C 72.399994 8.900002 71.700012 8.099998 70.5 8.099998 C 69.399994 8.099998 68.600006 9 68.600006 10.099998 C 68.600006 11.300003 69.300003 12.099998 70.5 12.099998 C 71.700012 12.099998 72.399994 11.199997 72.399994 10.099998 Z"/>
        <path id="path32" fill="#ffffff" stroke="none" d="M 78.5 12.900002 L 75.600006 8.900002 L 75.600006 12.900002 L 74.600006 12.900002 L 74.600006 7.300003 L 75.600006 7.300003 L 78.5 11.199997 L 78.5 7.300003 L 79.5 7.300003 L 79.5 12.900002 L 78.5 12.900002 Z"/>
    </g>
</svg>
