<?xml version="1.0" encoding="UTF-8"?>
<!-- Generated by Pixelmator Pro 3.2.3 -->
<svg width="300" height="94" viewBox="0 0 300 94" xmlns="http://www.w3.org/2000/svg" xmlns:xlink="http://www.w3.org/1999/xlink">
    <g id="g1">
        <path id="path1" fill="#000000" stroke="none" d="M 290.624969 94 L 9.374971 94 C 4.218764 94 -2.9e-05 89.770004 -2.9e-05 84.599998 L -2.9e-05 9.400002 C -2.9e-05 4.230011 4.218764 0 9.374971 0 L 290.624969 0 C 295.78125 0 299.999969 4.230011 299.999969 9.400002 L 299.999969 84.599998 C 299.999969 89.770004 295.78125 94 290.624969 94 Z"/>
        <g id="g2">
            <g id="bag3">
                <path id="path2" fill="#ffffff" stroke="none" d="M 42.65625 68.854996 L 21.5625 65.800003 L 21.5625 47.940002 L 42.65625 47.940002 L 42.65625 68.854996 Z M 42.65625 46.294994 L 21.5625 46.294994 L 21.5625 29.375 L 42.65625 26.319992 L 42.65625 46.294994 Z M 71.484344 72.849998 L 44.296906 68.854996 L 44.296906 47.940002 L 71.484344 47.940002 L 71.484344 72.849998 Z M 71.484344 46.294994 L 44.296906 46.294994 L 44.296906 26.319992 L 71.484344 22.324997 L 71.484344 46.294994 Z"/>
            </g>
        </g>
        <g id="g3">
            <path id="path3" fill="#ffffff" stroke="none" d="M 107.812469 35.719994 C 106.874985 36.190002 104.765625 36.659996 102.421875 36.659996 C 99.843735 36.659996 97.499985 35.955006 95.859406 34.309998 C 94.45314 32.900002 93.515656 30.549999 93.515656 27.730003 C 93.515656 22.559998 97.031281 18.565002 102.890656 18.565002 C 105.000015 18.565002 106.406281 19.034996 107.343765 19.269989 L 106.874985 21.150002 C 105.9375 20.680008 104.765625 20.444992 103.124969 20.444992 C 98.90625 20.444992 96.093719 23.030006 96.093719 27.494995 C 96.093719 31.959995 98.67186 34.544994 102.890656 34.544994 C 104.296844 34.544994 105.468719 34.309998 105.9375 34.075001 L 105.9375 28.905006 L 102.421875 28.905006 L 102.421875 27.025002 L 108.04686 27.025002 L 108.04686 35.719994 Z"/>
            <path id="path4" fill="#ffffff" stroke="none" d="M 112.499969 30.549999 C 112.499969 33.605007 114.609406 35.015003 116.718765 35.015003 C 118.359344 35.015003 119.296906 34.780006 120.23439 34.309998 L 120.703094 35.955006 C 120 36.424999 118.593735 36.659996 116.484375 36.659996 C 112.73436 36.659996 110.39061 34.075001 110.39061 30.315002 C 110.39061 26.555008 112.499969 23.5 116.249985 23.5 C 120.23439 23.5 121.406265 27.025002 121.406265 29.375 C 121.406265 29.844994 121.406265 30.315002 121.406265 30.549999 L 112.499969 30.549999 Z M 119.296906 28.905006 C 119.296906 27.494995 118.593735 25.144997 116.249985 25.144997 C 113.906235 25.144997 112.96875 27.259995 112.73436 28.905006 L 119.296906 28.905006 Z"/>
            <path id="path5" fill="#ffffff" stroke="none" d="M 127.03125 20.209999 L 127.03125 23.734993 L 130.312485 23.734993 L 130.312485 25.380005 L 127.03125 25.380005 L 127.03125 32.194992 C 127.03125 33.840004 127.500031 34.544994 128.671906 34.544994 C 129.375 34.544994 129.60939 34.544994 130.078094 34.309998 L 130.078094 35.955006 C 129.60939 36.190002 128.906219 36.190002 127.968735 36.190002 C 126.79686 36.190002 126.093765 35.955006 125.624985 35.25 C 124.92189 34.544994 124.6875 33.369991 124.6875 31.959995 L 124.6875 25.144997 L 122.812531 25.144997 L 122.812531 23.5 L 124.6875 23.5 L 124.6875 20.444992 L 127.03125 20.209999 Z"/>
            <path id="path6" fill="#ffffff" stroke="none" d="M 140.85936 20.209999 C 140.85936 20.915001 140.390656 21.619995 139.453094 21.619995 C 138.75 21.619995 138.046906 20.915001 138.046906 20.209999 C 138.046906 19.505005 138.75 18.800003 139.453094 18.800003 C 140.156265 18.800003 140.85936 19.505005 140.85936 20.209999 Z M 138.281219 36.424999 L 138.281219 23.734993 L 140.624969 23.734993 L 140.624969 36.424999 L 138.281219 36.424999 Z"/>
            <path id="path7" fill="#ffffff" stroke="none" d="M 146.953125 20.209999 L 146.953125 23.734993 L 150.23436 23.734993 L 150.23436 25.380005 L 146.953125 25.380005 L 146.953125 32.194992 C 146.953125 33.840004 147.421906 34.544994 148.593781 34.544994 C 149.296875 34.544994 149.531265 34.544994 149.999969 34.309998 L 149.999969 35.955006 C 149.531265 36.190002 148.828094 36.190002 147.89061 36.190002 C 146.718735 36.190002 146.01564 35.955006 145.54686 35.25 C 144.843765 34.544994 144.609375 33.369991 144.609375 31.959995 L 144.609375 25.144997 L 142.734406 25.144997 L 142.734406 23.5 L 144.609375 23.5 L 144.609375 20.444992 L 146.953125 20.209999 Z"/>
            <path id="path8" fill="#ffffff" stroke="none" d="M 169.453125 30.080006 C 169.453125 34.780006 166.17189 36.894993 163.124985 36.894993 C 159.84375 36.894993 157.031219 34.309998 157.031219 30.315002 C 157.031219 26.084999 159.84375 23.5 163.124985 23.5 C 167.109375 23.5 169.453125 26.084999 169.453125 30.080006 Z M 159.60936 30.080006 C 159.60936 32.900002 161.25 35.015003 163.359375 35.015003 C 165.468735 35.015003 167.109375 32.900002 167.109375 30.080006 C 167.109375 27.965004 165.9375 25.144989 163.359375 25.144989 C 160.781235 25.144989 159.60936 27.730003 159.60936 30.080006 Z"/>
            <path id="path9" fill="#ffffff" stroke="none" d="M 172.265594 27.259995 C 172.265594 25.849998 172.265594 24.909996 172.265594 23.734993 L 174.375015 23.734993 L 174.609344 25.849998 L 174.609344 25.849998 C 175.3125 24.675003 176.718765 23.5 178.828125 23.5 C 180.468719 23.5 183.28125 24.440002 183.28125 28.905006 L 183.28125 36.424999 L 180.9375 36.424999 L 180.9375 29.140007 C 180.9375 27.025002 180.23439 25.380005 178.124969 25.380005 C 176.718765 25.380005 175.54689 26.555008 175.078125 27.730011 C 175.078125 27.965004 174.843735 28.434998 174.843735 28.905006 L 174.843735 36.424999 L 172.499985 36.424999 L 172.499985 27.259995 Z"/>
            <path id="path10" fill="#ffffff" stroke="none" d="M 99.609344 74.495003 L 93.281265 48.879997 L 96.79689 48.879997 L 99.843735 61.804996 C 100.546906 65.095001 101.25 68.150002 101.718781 70.735001 L 101.718781 70.735001 C 102.187485 68.150002 102.890656 65.095001 103.82814 61.804996 L 107.109375 48.879997 L 110.625 48.879997 L 113.671844 61.804996 C 114.375015 64.860001 115.07811 67.915001 115.54689 70.5 L 115.54689 70.5 C 116.015594 67.68 116.718765 64.860001 117.65625 61.570004 L 120.937485 48.645 L 124.218719 48.645 L 116.953156 74.259995 L 113.437531 74.259995 L 110.156219 60.865002 C 109.453125 57.575001 108.750031 54.990002 108.51564 52.404999 L 108.51564 52.404999 C 108.04686 54.990002 107.578156 57.340004 106.640594 60.865002 L 103.124969 74.259995 L 99.609344 74.259995 Z"/>
            <path id="path11" fill="#ffffff" stroke="none" d="M 130.078094 50.759995 C 130.078094 51.934998 129.375 52.875 127.968735 52.875 C 126.79686 52.875 125.859375 51.934998 125.859375 50.759995 C 125.859375 49.584995 126.79686 48.645 127.968735 48.645 C 129.375 48.879997 130.078094 49.584995 130.078094 50.759995 Z M 126.328156 74.495003 L 126.328156 56.165005 L 129.60939 56.165005 L 129.60939 74.495003 L 126.328156 74.495003 Z"/>
            <path id="path12" fill="#ffffff" stroke="none" d="M 133.82811 61.099998 C 133.82811 59.220001 133.82811 57.575001 133.593719 56.165005 L 136.64064 56.165005 L 136.875031 59.220001 L 136.875031 59.220001 C 137.812515 57.575001 139.921875 55.695004 142.968719 55.695004 C 145.54686 55.695004 149.296875 57.105 149.296875 63.450001 L 149.296875 74.495003 L 146.01564 74.495003 L 146.01564 63.920002 C 146.01564 60.865002 144.843765 58.515003 141.796844 58.515003 C 139.687485 58.515003 137.812515 60.159996 137.343735 62.040001 C 137.109344 62.509995 137.109344 62.979996 137.109344 63.684998 L 137.109344 74.729996 L 133.82811 74.729996 L 133.82811 61.099998 Z"/>
            <path id="path13" fill="#ffffff" stroke="none" d="M 170.156235 47.470001 L 170.156235 69.794998 C 170.156235 71.440002 170.156235 73.32 170.390625 74.495003 L 167.343765 74.495003 L 167.109375 71.205002 L 167.109375 71.205002 C 166.17189 73.32 163.82814 74.729996 161.015625 74.729996 C 156.5625 74.729996 153.281265 70.970001 153.281265 65.330002 C 153.281265 59.220001 157.031219 55.459995 161.48439 55.459995 C 164.29686 55.459995 166.17189 56.870003 166.875 58.279999 L 166.875 58.279999 L 166.875 47.234997 L 170.156235 47.234997 Z M 166.875 63.450001 C 166.875 62.979996 166.875 62.509995 166.64061 62.040001 C 166.17189 59.924999 164.29686 58.279999 161.95311 58.279999 C 158.437485 58.279999 156.5625 61.334995 156.5625 65.330002 C 156.5625 69.090004 158.437485 72.145004 161.95311 72.145004 C 164.062469 72.145004 166.17189 70.735001 166.875 68.150002 C 166.875 67.68 167.109375 67.209999 167.109375 66.740005 L 167.109375 63.450001 Z"/>
            <path id="path14" fill="#ffffff" stroke="none" d="M 191.015594 65.095001 C 191.015594 71.909996 186.328094 74.965004 181.874985 74.965004 C 176.953094 74.965004 173.20314 71.205002 173.20314 65.565002 C 173.20314 59.454998 177.187485 55.695004 182.34375 55.695004 C 187.499969 55.695004 191.015594 59.454998 191.015594 65.095001 Z M 176.718765 65.330002 C 176.718765 69.324997 179.062515 72.379997 182.34375 72.379997 C 185.39061 72.379997 187.96875 69.324997 187.96875 65.330002 C 187.96875 62.275002 186.328094 58.279999 182.57814 58.279999 C 178.35936 58.045002 176.718765 61.804996 176.718765 65.330002 Z"/>
            <path id="path15" fill="#ffffff" stroke="none" d="M 195.234375 55.929996 L 197.578125 65.330002 C 198.046844 67.445 198.515625 69.324997 198.98439 71.205002 L 198.98439 71.205002 C 199.45311 69.324997 199.921875 67.445 200.624985 65.330002 L 203.67189 55.929996 L 206.48436 55.929996 L 209.296875 65.095001 C 209.999985 67.209999 210.46875 69.324997 210.937469 71.205002 L 210.937469 71.205002 C 211.17186 69.324997 211.640625 67.445 212.343735 65.330002 L 214.921875 56.165005 L 218.20311 56.165005 L 212.343735 74.495003 L 209.296875 74.495003 L 206.48436 65.800003 C 205.78125 63.684998 205.312485 62.040001 204.843765 59.690002 L 204.843765 59.690002 C 204.375 61.804996 203.906219 63.684998 203.203125 65.800003 L 200.156265 74.495003 L 197.34375 74.495003 L 191.95314 56.165005 L 195.234375 56.165005 Z"/>
            <path id="path16" fill="#ffffff" stroke="none" d="M 220.78125 70.970001 C 221.718735 71.675003 223.593765 72.379997 225.23436 72.379997 C 227.57811 72.379997 228.749985 71.205002 228.749985 69.559998 C 228.749985 67.915001 227.8125 66.974998 225.46875 66.270004 C 222.1875 65.095001 220.54686 63.215004 220.54686 61.099998 C 220.54686 58.045002 222.89061 55.695004 226.875 55.695004 C 228.749985 55.695004 230.390625 56.165005 231.328125 56.870003 L 230.390625 59.220001 C 229.687469 58.75 228.281265 58.045002 226.640625 58.045002 C 224.76564 58.045002 223.593765 59.220001 223.593765 60.629997 C 223.593765 62.040001 224.76564 62.745003 227.10939 63.684998 C 230.15625 64.860001 231.79689 66.504997 231.79689 69.324997 C 231.79689 72.615005 229.21875 74.729996 224.999969 74.729996 C 222.89061 74.729996 221.250015 74.259995 219.84375 73.555 L 220.78125 70.970001 Z"/>
            <path id="path17" fill="#ffffff" stroke="none" d="M 247.265594 52.875 L 247.265594 52.875 L 243.046875 55.224998 L 242.343765 52.640003 L 247.734375 49.820004 L 250.54689 49.820004 L 250.54689 74.495003 L 247.265594 74.495003 L 247.265594 52.875 Z"/>
            <path id="path18" fill="#ffffff" stroke="none" d="M 273.515625 61.804996 C 273.515625 70.264999 270.468781 74.729996 265.078094 74.729996 C 260.390594 74.729996 257.109375 70.264999 256.874969 62.040001 C 256.874969 53.815002 260.390594 49.115002 265.3125 49.115002 C 270.703094 49.349998 273.515625 54.049999 273.515625 61.804996 Z M 260.156219 62.275002 C 260.156219 68.620003 262.03125 72.379997 265.078094 72.379997 C 268.359344 72.379997 270 68.384995 270 62.040001 C 270 55.929996 268.359344 51.934998 265.078094 51.934998 C 262.265656 51.934998 260.156219 55.459995 260.156219 62.275002 Z"/>
        </g>
    </g>
</svg>
